<svg height="512pt" viewBox="0 0 512 511" width="512pt" xmlns="http://www.w3.org/2000/svg"><path d="m0 512.476562v-278.769531l102.847656-45.207031h6.304688l26.847656 26.847656v222.304688c-10.484375 10.484375-16.363281 16.363281-26.847656 26.847656zm0 0" fill="#d9d0ca"/><path d="m270 459.5-14 5h-146.847656v-276h146.847656l14 5zm0 0" fill="#f3eeea"/><path d="m409.152344 464.5h-6.304688c-10.484375-10.484375-16.363281-16.363281-26.847656-26.847656v-222.304688c10.484375-10.484375 16.363281-16.363281 26.847656-26.847656l109.152344-47.980469v278.769531zm0 0" fill="#d9d0ca"/><path d="m402.847656 464.5h-146.847656v-276h146.847656zm0 0" fill="#e8dfd9"/><path d="m256 347.046875-10.769531-11.105469c-1.25-1.289062-30.957031-32.015625-61.144531-71.476562-41.859376-54.71875-63.085938-98.109375-63.085938-128.964844 0-74.4375 60.5625-135 135-135s135 60.5625 135 135c0 30.855469-21.226562 74.246094-63.085938 128.96875-30.1875 39.457031-59.894531 70.1875-61.144531 71.476562zm0 0" fill="#ff4259"/><path d="m256 .5v346.546875l10.769531-11.105469c1.25-1.289062 30.957031-32.015625 61.144531-71.476562 41.859376-54.71875 63.085938-98.109375 63.085938-128.964844 0-74.441406-60.5625-135-135-135zm0 0" fill="#c40748"/><path d="m256 180.5c-30.328125 0-55-24.671875-55-55s24.671875-55 55-55 55 24.671875 55 55-24.671875 55-55 55zm0 0" fill="#bbfaff"/><path d="m311 125.5c0-30.328125-24.671875-55-55-55v110c30.328125 0 55-24.671875 55-55zm0 0" fill="#47f5ff"/></svg>